/* XPM */
static char * icon_xpm[] = {
"48 48 60 1",
" 	c None",
".	c #151515",
"+	c #070707",
"@	c #0A0A0A",
"#	c #0B0B0B",
"$	c #0F0F0F",
"%	c #E0E0E0",
"&	c #FFFFFF",
"*	c #B6B6B6",
"=	c #0E0E0E",
"-	c #FAFAFA",
";	c #929292",
">	c #FDFDFD",
",	c #646464",
"'	c #101010",
")	c #FEFEFE",
"!	c #5C5C5C",
"~	c #080808",
"{	c #0C0C0C",
"]	c #FCFCFC",
"^	c #EDEDED",
"/	c #FBFBFB",
"(	c #DDDDDD",
"_	c #EAEAEA",
":	c #A1A1A1",
"<	c #121212",
"[	c #232323",
"}	c #D8D8D8",
"|	c #DCDCDC",
"1	c #E1E1E1",
"2	c #474747",
"3	c #010101",
"4	c #DADADA",
"5	c #C5C5C5",
"6	c #A8A8A8",
"7	c #9E9E9E",
"8	c #595959",
"9	c #282828",
"0	c #C7C7C7",
"a	c #C9C9C9",
"b	c #DBDBDB",
"c	c #666666",
"d	c #303030",
"e	c #343434",
"f	c #686868",
"g	c #ECECEC",
"h	c #EBEBEB",
"i	c #252525",
"j	c #131313",
"k	c #888888",
"l	c #111111",
"m	c #B3B3B3",
"n	c #F1F1F1",
"o	c #F5F5F5",
"p	c #141414",
"q	c #838383",
"r	c #A6A6A6",
"s	c #898989",
"t	c #040404",
"u	c #0D0D0D",
"                                                ",
"                                                ",
"                                                ",
"                                                ",
"                                                ",
"    .+@@@@@@@@@@@@@@#                           ",
"    $%&&&&&&&&&&&&&&*#                          ",
"    =-&&&&&&&&&&&&&&&;=                         ",
"    =>&&&&&&&&&&&&&&&&,'                        ",
"    =>&&&&&&&&&&&&&&&&)!+~~~~~~~~~~~~~~~~~~{    ",
"    =>&&&&&&&&&&&&&&&&&&))))))>>>>>>>>>>]]]^#   ",
"    =>&&&&&&&&&&&&&/(((((((((((((((((((((((_+   ",
"    =>&&&&&&&&&&&&:<[[[[[[[[[[[[[[[[[[[[[[['~   ",
"    =>&&&&&&&&&&&}.|&&&&&&&&&&&&&&&&&&&&&&&1@   ",
"    =>&&&&&&&&&&&2;&&&&&&&&&&&&&&&&&&&&&&&&&3   ",
"    =456:::::::7890aaaaaaaaaaaaaaaaaaaaaaaab3   ",
"    =c=9dddddddef(ggggggggggggggggggggggggh*3   ",
"    #i(&&&&&&&&&&&&&&&&&&&&&&&&&&&&&&&&&&&&*3   ",
"    jk/&&&&&&&&&&&&&&&&&&&&&&&&&&&&&&&&&&&&*3   ",
"    lm/&&&&&&&&&&&&&&&&&&&&&&&&&&&&&&&&&&&&*3   ",
"    '*/&&&&&&&&&&&&&&&&&&&&&&&&&&&&&&&&&&&&*3   ",
"    '*/&&&&&&&&&&&&&&&&&&&&&&&&&&&&&&&&&&&&*3   ",
"    '*/&&&&&&&&&&&&&&&&&&&&&&&&&&&&&&&&&&&&*3   ",
"    '*/&&&&&&&&&&&&&&&&&&&&&&&&&&&&&&&&&&&&*3   ",
"    '*/&&&&&&&&&&&&&&&&&&&&&&&&&&&&&&&&&&&&*3   ",
"    '*/&&&&&&&&&&&&&&&&&&&&&&&&&&&&&&&&&&&&*3   ",
"    '*/&&&&&&&&&&&&&&&&&&&&&&&&&&&&&&&&&&&&*3   ",
"    '*/&&&&&&&&&&&&&&&&&&&&&&&&&&&&&&&&&&&&*3   ",
"    '*/&&&&&&&&&&&&&&&&&&&&&&&&&&&&&&&&&&&&*3   ",
"    '*/&&&&&&&&&&&&&&&&&&&&&&&&&&&&&&&&&&&&*3   ",
"    '*/&&&&&&&&&&&&&&&&&&&&&&&&&&&&&&&&&&&&*3   ",
"    '*/&&&&&&&&&&&&&&&&&&&&&&&&&&&&&&&&&&&&*3   ",
"    '*/&&&&&&&&&&&&&&&&&&&&&&&&&&&&&&&&&&&&*3   ",
"    '*/&&&&&&&&&&&&&&&&&&&&&&&&&&&&&&&&&&&&*3   ",
"    '*/&&&&&&&&&&&&&&&&&&&&&&&&&&&&&&&&&&&&*3   ",
"    '*/&&&&&&&&&&&&&&&&&&&&&&&&&&&&&&&&&&&&*3   ",
"    '*/&&&&&&&&&&&&&&&&&&&&&&&&&&&&&&&&&&&&*3   ",
"    '*/&&&&&&&&&&&&&&&&&&&&&&&&&&&&&&&&&&&&*3   ",
"    '*noooooooooooooooooooooooooooooooooooo*3   ",
"    pqrrrrrrrrrrrrrrrrrrrrrrrrrrrrrrrrrrrrrsl   ",
"    t<uuuuuuuuuuuuuuuuuuuuuuuuuuuuuuuuuuuuul~   ",
"                                                ",
"                                                ",
"                                                ",
"                                                ",
"                                                ",
"                                                ",
"                                                "};
